<svg xmlns="http://www.w3.org/2000/svg" fill="none" viewBox="0 0 143 143">
  <path fill="#DD4814" d="M139.39 24.77 102 91.67s2.11 10.75-1 16.33c-3.12 5.59-13.4 9.44-13.4 9.44L75.21 139.6a3.49 3.49 0 0 1-6.07.02l-12.4-21.76S48 115 45.5 110c-3.75-7.5-1.5-14.5-1.5-14.5L3.7 24.79a3.49 3.49 0 0 1 3.63-5.17l64.25 11.5c.4.07.83.06 1.24-.01l62.9-11.47a3.49 3.49 0 0 1 3.67 5.13Z"/>
  <path fill="url(#a)" stroke="#DD4814" stroke-linejoin="round" stroke-width="3" d="M70.43 2.9a1.5 1.5 0 0 1 1.9-.12 30.65 30.65 0 0 1 12.93 26.86c-.25 2.09-.81 4.16-1.39 6.14-.58 2.02-1.18 3.91-1.57 5.79-.78 3.7-.72 6.96 1.7 10.02a6.67 6.67 0 0 0 3.63 2.28l.34.07a6.7 6.7 0 0 0 7.71-4.75v-.13a4.1 4.1 0 0 0-.32-1.72 1.5 1.5 0 0 1 1.38-2.08h.63c.2 0 .41.05.6.13a40.86 40.86 0 0 1 24.53 36.4v.05c-.35 20-18.84 33.76-36.29 37.59a1.5 1.5 0 0 1-.77-2.9c8.1-2.56 14.13-8.5 15.29-17.43 1.1-8.42-2.77-15.1-9.08-20a190.63 190.63 0 0 0-18.84-12.7 24.83 24.83 0 0 1-6.13-5.71 11.85 11.85 0 0 1-1.96-4.1c-.97 1.42-1.7 3-2.13 4.66a16.2 16.2 0 0 0 5.55 14.51l.42.35.04.03a9.65 9.65 0 0 1 2.85 4.28l.1.33a9.55 9.55 0 0 1-6.81 11.82 9.4 9.4 0 0 1-9.55-3.74 10.68 10.68 0 0 1-1.66-5.79c-5.13 4.14-8.55 9.61-8.12 16.66.5 8.03 5.14 13.33 12.11 16.4l4.91 1.46a1.5 1.5 0 0 1-.72 2.91l-4.97-1a38.95 38.95 0 0 1-30.2-26.95c-3.03-14.2.63-29 9.95-40.22 4.22-5.53 8.93-10.7 14.06-15.4 2.4-2.25 5.1-4.36 7.59-6.44a49.15 49.15 0 0 0 6.4-6.2l.37-.45c1.96-2.48 4.22-5.83 5.5-9.32 1.28-3.5 1.49-6.88-.24-9.71a1.5 1.5 0 0 1 .26-1.88Z"/>
  <defs>
    <linearGradient id="a" x1="53.31" x2="63.18" y1="6.58" y2="107.54" gradientUnits="userSpaceOnUse">
      <stop stop-color="#FFEA83"/>
      <stop offset=".08" stop-color="#FFDD35"/>
      <stop offset="1" stop-color="#FFA800"/>
    </linearGradient>
  </defs>
</svg>
