<svg xmlns="http://www.w3.org/2000/svg" fill="none" viewBox="0 0 140 140">
  <path fill="#DD4814" d="m136.46 22.3-36.6 65.5s2.07 10.51-.98 15.98c-3.05 5.47-13.12 9.24-13.12 9.24l-12.13 21.7a3.41 3.41 0 0 1-5.94.02l-12.14-21.3s-8.56-2.81-11-7.7c-3.68-7.35-1.47-14.2-1.47-14.2L3.6 22.3a3.42 3.42 0 0 1 3.57-5.06l62.9 11.25c.4.07.8.07 1.2 0l61.59-11.23c2.84-.52 5 2.5 3.6 5.03Z"/>
  <path fill="url(#a)" d="M43 95.74c.52 8.56 5.58 14.62 12.85 17.79l.05.04h-.08a36.66 36.66 0 0 1-28.4-25.25 44.96 44.96 0 0 1 9.45-38.16A114.7 114.7 0 0 1 50.5 35.23c4.62-4.32 10.28-8.01 14.2-12.97 3.91-4.96 9.3-13.67 5.26-20.3A28.54 28.54 0 0 1 82 26.88c-.92 7.67-6.45 15.61-.92 22.59a7.9 7.9 0 0 0 6.04 2.9c3.67 0 7.84-2.44 7.84-6.36 0-.49 0-1.46-.25-2.19 8.08 1.7 24.07 15.72 23.74 34.32-.33 18.6-17.6 31.72-34.37 35.39 8.38-2.65 14.76-8.88 15.98-18.28 1.16-8.89-2.97-15.9-9.44-20.92a188.1 188.1 0 0 0-18.53-12.5c-3.62-2.43-9.01-7.39-7.1-12.4a16.33 16.33 0 0 0-5.17 8.3A17.34 17.34 0 0 0 66.2 73.7a7.98 7.98 0 0 1 2.44 3.8 7.88 7.88 0 0 1-5.55 9.73 7.73 7.73 0 0 1-7.82-3 8.96 8.96 0 0 1-.7-8.23c-6.85 4.37-12.13 10.82-11.58 19.74Z"/>
  <defs>
    <linearGradient id="a" x1="52.19" x2="61.69" y1="4.46" y2="102.46" gradientUnits="userSpaceOnUse">
      <stop stop-color="#FFEA83"/>
      <stop offset=".08" stop-color="#FFDD35"/>
      <stop offset="1" stop-color="#FFA800"/>
    </linearGradient>
  </defs>
</svg>
